<?xml version="1.0" encoding="UTF-8" standalone="no"?>
<!-- Created with Inkscape (http://www.inkscape.org/) -->

<svg
   xmlns:ns0="http://www.iki.fi/pav/software/textext/"
   xmlns:dc="http://purl.org/dc/elements/1.1/"
   xmlns:cc="http://creativecommons.org/ns#"
   xmlns:rdf="http://www.w3.org/1999/02/22-rdf-syntax-ns#"
   xmlns:svg="http://www.w3.org/2000/svg"
   xmlns="http://www.w3.org/2000/svg"
   xmlns:sodipodi="http://sodipodi.sourceforge.net/DTD/sodipodi-0.dtd"
   xmlns:inkscape="http://www.inkscape.org/namespaces/inkscape"
   width="183.23698mm"
   height="135.56532mm"
   viewBox="0 0 649.26507 480.34971"
   id="svg2"
   version="1.1"
   inkscape:version="0.91 r13725"
   sodipodi:docname="feature_diagram.svg">
  <sodipodi:namedview
     id="base"
     pagecolor="#ffffff"
     bordercolor="#666666"
     borderopacity="1.0"
     inkscape:pageopacity="0.0"
     inkscape:pageshadow="2"
     inkscape:zoom="1.4"
     inkscape:cx="159.00399"
     inkscape:cy="233.72719"
     inkscape:document-units="px"
     inkscape:current-layer="layer1"
     showgrid="false"
     inkscape:snap-bbox="false"
     inkscape:snap-bbox-edge-midpoints="true"
     inkscape:bbox-nodes="true"
     inkscape:bbox-paths="true"
     inkscape:snap-midpoints="true"
     inkscape:object-nodes="true"
     inkscape:snap-intersection-paths="true"
     inkscape:object-paths="true"
     inkscape:snap-nodes="false"
     inkscape:snap-bbox-midpoints="true"
     fit-margin-top="0"
     fit-margin-left="0"
     fit-margin-right="0"
     fit-margin-bottom="0"
     inkscape:window-width="1920"
     inkscape:window-height="1175"
     inkscape:window-x="0"
     inkscape:window-y="25"
     inkscape:window-maximized="1" />
  <defs
     id="defs4">
    <marker
       inkscape:isstock="true"
       style="overflow:visible"
       id="marker35012"
       refX="0"
       refY="0"
       orient="auto"
       inkscape:stockid="Arrow1Lend">
      <path
         inkscape:connector-curvature="0"
         transform="matrix(-0.8,0,0,-0.8,-10,0)"
         style="fill:#000000;fill-opacity:1;fill-rule:evenodd;stroke:#000000;stroke-width:1pt;stroke-opacity:1"
         d="M 0,0 5,-5 -12.5,0 5,5 0,0 Z"
         id="path35014" />
    </marker>
    <marker
       inkscape:collect="always"
       inkscape:stockid="Arrow1Lend"
       orient="auto"
       refY="0"
       refX="0"
       id="marker31910"
       style="overflow:visible"
       inkscape:isstock="true">
      <path
         inkscape:connector-curvature="0"
         id="path31912"
         d="M 0,0 5,-5 -12.5,0 5,5 0,0 Z"
         style="fill:#000000;fill-opacity:1;fill-rule:evenodd;stroke:#000000;stroke-width:1pt;stroke-opacity:1"
         transform="matrix(-0.8,0,0,-0.8,-10,0)" />
    </marker>
    <marker
       inkscape:collect="always"
       inkscape:isstock="true"
       style="overflow:visible"
       id="marker30619"
       refX="0"
       refY="0"
       orient="auto"
       inkscape:stockid="Arrow1Lend">
      <path
         inkscape:connector-curvature="0"
         transform="matrix(-0.8,0,0,-0.8,-10,0)"
         style="fill:#800080;fill-opacity:1;fill-rule:evenodd;stroke:#800080;stroke-width:1pt;stroke-opacity:1"
         d="M 0,0 5,-5 -12.5,0 5,5 0,0 Z"
         id="path30621" />
    </marker>
    <marker
       inkscape:collect="always"
       inkscape:isstock="true"
       style="overflow:visible"
       id="marker27758"
       refX="0"
       refY="0"
       orient="auto"
       inkscape:stockid="Arrow1Lend">
      <path
         inkscape:connector-curvature="0"
         transform="matrix(-0.8,0,0,-0.8,-10,0)"
         style="fill:#000000;fill-opacity:1;fill-rule:evenodd;stroke:#000000;stroke-width:1pt;stroke-opacity:1"
         d="M 0,0 5,-5 -12.5,0 5,5 0,0 Z"
         id="path27760" />
    </marker>
    <marker
       inkscape:collect="always"
       inkscape:stockid="Arrow1Lend"
       orient="auto"
       refY="0"
       refX="0"
       id="marker27688"
       style="overflow:visible"
       inkscape:isstock="true">
      <path
         inkscape:connector-curvature="0"
         id="path27690"
         d="M 0,0 5,-5 -12.5,0 5,5 0,0 Z"
         style="fill:#000000;fill-opacity:1;fill-rule:evenodd;stroke:#000000;stroke-width:1pt;stroke-opacity:1"
         transform="matrix(-0.8,0,0,-0.8,-10,0)" />
    </marker>
    <marker
       inkscape:collect="always"
       inkscape:isstock="true"
       style="overflow:visible"
       id="marker5718"
       refX="0"
       refY="0"
       orient="auto"
       inkscape:stockid="Arrow1Lend">
      <path
         inkscape:connector-curvature="0"
         transform="matrix(-0.8,0,0,-0.8,-10,0)"
         style="fill:#000000;fill-opacity:1;fill-rule:evenodd;stroke:#000000;stroke-width:1pt;stroke-opacity:1"
         d="M 0,0 5,-5 -12.5,0 5,5 0,0 Z"
         id="path5720" />
    </marker>
    <marker
       inkscape:stockid="Arrow1Lend"
       orient="auto"
       refY="0"
       refX="0"
       id="marker4970"
       style="overflow:visible"
       inkscape:isstock="true">
      <path
         inkscape:connector-curvature="0"
         id="path4972"
         d="M 0,0 5,-5 -12.5,0 5,5 0,0 Z"
         style="fill:#000000;fill-opacity:1;fill-rule:evenodd;stroke:#000000;stroke-width:1pt;stroke-opacity:1"
         transform="matrix(-0.8,0,0,-0.8,-10,0)" />
    </marker>
    <marker
       inkscape:collect="always"
       inkscape:stockid="Arrow1Lend"
       orient="auto"
       refY="0"
       refX="0"
       id="marker4928"
       style="overflow:visible"
       inkscape:isstock="true">
      <path
         inkscape:connector-curvature="0"
         id="path4930"
         d="M 0,0 5,-5 -12.5,0 5,5 0,0 Z"
         style="fill:#000000;fill-opacity:1;fill-rule:evenodd;stroke:#000000;stroke-width:1pt;stroke-opacity:1"
         transform="matrix(-0.8,0,0,-0.8,-10,0)" />
    </marker>
    <marker
       inkscape:collect="always"
       inkscape:isstock="true"
       style="overflow:visible"
       id="Arrow1Lend"
       refX="0"
       refY="0"
       orient="auto"
       inkscape:stockid="Arrow1Lend">
      <path
         inkscape:connector-curvature="0"
         transform="matrix(-0.8,0,0,-0.8,-10,0)"
         style="fill:#000000;fill-opacity:1;fill-rule:evenodd;stroke:#000000;stroke-width:1pt;stroke-opacity:1"
         d="M 0,0 5,-5 -12.5,0 5,5 0,0 Z"
         id="path4155" />
    </marker>
    <marker
       inkscape:stockid="Arrow1Lend"
       orient="auto"
       refY="0"
       refX="0"
       id="marker4970-3"
       style="overflow:visible"
       inkscape:isstock="true">
      <path
         id="path4972-6"
         d="M 0,0 5,-5 -12.5,0 5,5 0,0 Z"
         style="fill:#000000;fill-opacity:1;fill-rule:evenodd;stroke:#000000;stroke-width:1pt;stroke-opacity:1"
         transform="matrix(-0.8,0,0,-0.8,-10,0)"
         inkscape:connector-curvature="0" />
    </marker>
  </defs>
  <metadata
     id="metadata7">
    <rdf:RDF>
      <cc:Work
         rdf:about="">
        <dc:format>image/svg+xml</dc:format>
        <dc:type
           rdf:resource="http://purl.org/dc/dcmitype/StillImage" />
        <dc:title></dc:title>
      </cc:Work>
    </rdf:RDF>
  </metadata>
  <g
     transform="translate(-61.162095,20.195624)"
     id="layer1"
     inkscape:groupmode="layer"
     inkscape:label="Layer 1">
    <rect
       transform="matrix(0.94906904,0.31506819,-0.9719644,0.23512804,0,0)"
       y="140.01328"
       x="588.70728"
       height="370.52444"
       width="301.82626"
       id="rect3336"
       style="fill:#0000ff;fill-opacity:0;fill-rule:evenodd;stroke:#000000;stroke-width:1.39226687;stroke-linecap:butt;stroke-linejoin:miter;stroke-miterlimit:4;stroke-dasharray:2.7845337, 1.39226685;stroke-dashoffset:0;stroke-opacity:1" />
    <g
       transform="matrix(1.0581286,-0.20257896,-0.38253643,1.0142799,217.07415,216.93212)"
       id="g39815">
      <rect
         style="fill:#00be21;fill-opacity:0.34814818;stroke:#000000;stroke-width:0.42290086;stroke-miterlimit:4;stroke-dasharray:1.6916035, 0.42290087;stroke-dashoffset:0;stroke-opacity:1"
         id="rect27576"
         width="308.25122"
         height="251.895"
         x="55.44413"
         y="-1.2773174" />
      <path
         transform="matrix(0.84529946,0,0,0.84529946,-40.190579,-447.67406)"
         style="fill:#000000;fill-opacity:1;fill-rule:evenodd;stroke:#000000;stroke-width:1px;stroke-linecap:butt;stroke-linejoin:miter;stroke-opacity:1;marker-end:url(#marker27758)"
         d="m 113.13709,685.67683 c 363.65491,0 363.65491,0 363.65491,0"
         id="path27580"
         inkscape:connector-curvature="0" />
      <path
         transform="matrix(0.84529946,0,0,0.84529946,-40.190579,-447.67406)"
         style="fill:#000000;fill-opacity:1;fill-rule:evenodd;stroke:#000000;stroke-width:1px;stroke-linecap:butt;stroke-linejoin:miter;stroke-opacity:1;marker-end:url(#marker27688)"
         d="m 292.94424,527.08288 c 0,297.995 0,297.995 0,297.995"
         id="path27738"
         inkscape:connector-curvature="0" />
      <path
         inkscape:connector-curvature="0"
         id="path30611"
         d="m 207.60956,131.26346 37.8707,-48.525909"
         style="fill:#800080;fill-opacity:1;fill-rule:evenodd;stroke:#800080;stroke-width:0.84500003;stroke-linecap:butt;stroke-linejoin:miter;stroke-miterlimit:4;stroke-dasharray:none;stroke-opacity:1;marker-end:url(#marker30619)"
         sodipodi:nodetypes="cc" />
      <path
         style="fill:#800080;fill-rule:evenodd;stroke:#800080;stroke-width:0.5;stroke-linecap:butt;stroke-linejoin:miter;stroke-miterlimit:4;stroke-dasharray:2, 0.5;stroke-dashoffset:0;stroke-opacity:1"
         d="m 246.37835,82.008537 -38.70122,0.01324"
         id="path39590"
         inkscape:connector-curvature="0"
         sodipodi:nodetypes="cc" />
      <path
         style="fill:#800080;fill-rule:evenodd;stroke:#800080;stroke-width:0.5;stroke-linecap:butt;stroke-linejoin:miter;stroke-miterlimit:4;stroke-dasharray:2, 0.5;stroke-dashoffset:0;stroke-opacity:1"
         d="M 246.922,131.55183 246.28803,81.87436"
         id="path39752"
         inkscape:connector-curvature="0"
         sodipodi:nodetypes="cc" />
    </g>
    <path
       sodipodi:nodetypes="cc"
       inkscape:connector-curvature="0"
       id="path5710"
       d="m 242.56768,261.96433 286.45393,95.09585"
       style="fill:none;fill-rule:evenodd;stroke:#000000;stroke-width:1.00000036;stroke-linecap:butt;stroke-linejoin:miter;stroke-miterlimit:4;stroke-dasharray:4.00000131, 1.00000033;stroke-dashoffset:0;stroke-opacity:1;marker-end:url(#marker5718)" />
    <path
       sodipodi:nodetypes="cc"
       inkscape:connector-curvature="0"
       id="path4140"
       d="M 205.72637,353.07259 565.86292,265.95191"
       style="fill:none;fill-rule:evenodd;stroke:#000000;stroke-width:1.00000036;stroke-linecap:butt;stroke-linejoin:miter;stroke-miterlimit:4;stroke-dasharray:2.00000066, 1.00000033;stroke-dashoffset:0;stroke-opacity:1;marker-end:url(#marker4928)" />
    <path
       sodipodi:nodetypes="cc"
       inkscape:connector-curvature="0"
       id="path31902"
       d="m 384.86813,68.221052 c -46.31183,4.85843 -85.12298,29.12184 -102.02542,53.790618"
       style="fill:none;fill-rule:evenodd;stroke:#000000;stroke-width:1;stroke-linecap:butt;stroke-linejoin:miter;stroke-miterlimit:4;stroke-dasharray:1, 2;stroke-dashoffset:0;stroke-opacity:1;marker-end:url(#marker31910)" />
    <g
       style="fill:#00be21;fill-opacity:0.34814818"
       transform="matrix(0.84529946,0,0,0.84529946,0.02192493,-383.80888)"
       id="g30779">
      <g
         style="fill:#00be21;fill-opacity:0.34814818"
         id="g27882"
         transform="translate(-47.571903,-75.553316)" />
    </g>
    <path
       sodipodi:nodetypes="cc"
       inkscape:connector-curvature="0"
       id="path35004"
       d="m 384.36304,67.968502 c 18.88945,-1.123914 63.79719,60.449348 70.14434,90.786838"
       style="fill:none;fill-rule:evenodd;stroke:#000000;stroke-width:1;stroke-linecap:butt;stroke-linejoin:miter;stroke-miterlimit:4;stroke-dasharray:1, 2;stroke-dashoffset:0;stroke-opacity:1;marker-end:url(#marker35012)" />
    <path
       sodipodi:nodetypes="cc"
       inkscape:connector-curvature="0"
       id="path4962-7"
       d="m 385.79464,309.51225 69.4115,-146.42923"
       style="fill:none;fill-rule:evenodd;stroke:#000000;stroke-width:2;stroke-linecap:butt;stroke-linejoin:miter;stroke-miterlimit:4;stroke-dasharray:none;stroke-opacity:1;marker-end:url(#marker4970-3)" />
    <path
       sodipodi:nodetypes="cc"
       inkscape:connector-curvature="0"
       id="path4962"
       d="M 385.79464,309.51225 284.00068,125.47162"
       style="fill:none;fill-rule:evenodd;stroke:#000000;stroke-width:2;stroke-linecap:butt;stroke-linejoin:miter;stroke-miterlimit:4;stroke-dasharray:none;stroke-opacity:1;marker-end:url(#marker4970)" />
    <path
       sodipodi:nodetypes="cc"
       inkscape:connector-curvature="0"
       id="path4146"
       d="M 385.79464,309.51225 385.0805,2.3693716"
       style="fill:#000000;fill-rule:evenodd;stroke:#000000;stroke-width:1.00000036;stroke-linecap:butt;stroke-linejoin:miter;stroke-miterlimit:4;stroke-dasharray:none;stroke-opacity:1;marker-end:url(#Arrow1Lend)" />
    <path
       inkscape:connector-curvature="0"
       id="path45601"
       d="m 380.25908,299.6908 -13.92858,1.42857 6.25,9.10715"
       style="fill:none;fill-rule:evenodd;stroke:#000000;stroke-width:1px;stroke-linecap:butt;stroke-linejoin:miter;stroke-opacity:1" />
    <flowRoot
       style="font-style:normal;font-weight:normal;font-size:40px;line-height:125%;font-family:sans-serif;letter-spacing:0px;word-spacing:0px;fill:#000000;fill-opacity:1;stroke:none;stroke-width:1px;stroke-linecap:butt;stroke-linejoin:miter;stroke-opacity:1"
       id="flowRoot4318"
       xml:space="preserve"><flowRegion
         id="flowRegion4320"><rect
           y="42.088589"
           x="558.61438"
           height="76.771591"
           width="136.37059"
           id="rect4322" /></flowRegion><flowPara
         id="flowPara4324" /></flowRoot>    <g
       id="content"
       transform="matrix(2.9364477,0,0,-2.9364477,-394.22155,2032.0346)"
       xml:space="preserve"
       stroke-miterlimit="10.433"
       font-style="normal"
       font-variant="normal"
       font-weight="normal"
       font-stretch="normal"
       font-size-adjust="none"
       letter-spacing="normal"
       word-spacing="normal"
       ns0:text="$\\zeta_i$"
       ns0:preamble=""
       style="font-style:normal;font-variant:normal;font-weight:normal;font-stretch:normal;letter-spacing:normal;word-spacing:normal;text-anchor:start;fill:none;fill-opacity:1;fill-rule:evenodd;stroke:#000000;stroke-linecap:butt;stroke-linejoin:miter;stroke-miterlimit:10.43299961;stroke-dasharray:none;stroke-dashoffset:0;stroke-opacity:1"><path
         style="fill:#000000;stroke-width:0"
         inkscape:connector-curvature="0"
         d="m 226.66,663 0.02,-0.02 0.01,-0.01 0.02,-0.01 0.02,-0.02 0.02,-0.01 0.02,-0.01 0.01,-0.01 0.02,-0.01 0.02,-0.01 0.02,-0.01 0.02,-0.01 0.02,0 0.02,-0.01 0.02,-0.01 0.02,0 0.02,-0.01 0.02,0 0.02,0 0.04,-0.01 0.04,0 0.03,-0.01 0.04,0 0.04,0 0.04,0 0.04,0 0.01,0.22 c -0.21,0 -0.28,0 -0.39,0.07 l 0,0 c 0.15,0.07 0.33,0.07 0.46,0.07 0.33,0 0.37,-0.01 0.55,-0.06 -0.08,-0.03 -0.18,-0.08 -0.62,-0.08 l -0.01,-0.22 c 0.25,0 0.88,0 0.88,0.31 0,0.25 -0.39,0.27 -0.79,0.27 -0.11,0 -0.38,0 -0.64,-0.1 -0.05,0.12 -0.07,0.17 -0.07,0.38 0,0.14 0.05,0.35 0.05,0.37 0,0.08 -0.05,0.13 -0.12,0.13 -0.18,0 -0.18,-0.46 -0.18,-0.49 0,-0.17 0.03,-0.35 0.11,-0.5 -1.05,-0.53 -2.62,-2.36 -2.62,-4.29 0,-1.41 0.91,-1.71 1.62,-1.95 0.3,-0.11 0.32,-0.11 0.61,-0.21 0.21,-0.07 0.62,-0.21 0.62,-0.67 0,-0.27 -0.19,-0.66 -0.56,-0.66 -0.26,0 -0.53,0.12 -0.73,0.3 -0.07,0.06 -0.08,0.07 -0.13,0.07 -0.04,0 -0.09,-0.04 -0.09,-0.11 0,-0.1 0.42,-0.48 0.95,-0.48 0.62,0 1.09,0.64 1.09,1.21 0,0.37 -0.19,0.58 -0.27,0.66 -0.17,0.19 -0.36,0.25 -0.95,0.45 -0.79,0.27 -0.95,0.32 -1.19,0.53 -0.42,0.38 -0.42,0.95 -0.42,1.13 0,1.55 1.21,3.29 2.22,3.83 z"
         id="path4738" /><path
         style="fill:#000000;stroke-width:0"
         inkscape:connector-curvature="0"
         d="m 230.05,660.1 0,0.01 0,0.01 0,0.01 0,0.01 -0.01,0.01 0,0.01 0,0.02 -0.01,0.01 0,0.01 -0.01,0.01 0,0.01 -0.01,0.01 0,0.01 -0.01,0.01 -0.01,0.01 -0.01,0.01 -0.01,0.01 0,0.01 -0.01,0.01 -0.02,0.01 -0.01,0.01 -0.01,0 -0.01,0.01 -0.01,0.01 -0.02,0 -0.01,0.01 -0.02,0 -0.01,0.01 -0.02,0 -0.01,0 -0.02,0 -0.02,0 c -0.19,0 -0.39,-0.18 -0.39,-0.38 0,-0.12 0.09,-0.26 0.28,-0.26 0.2,0 0.39,0.19 0.39,0.38 z"
         id="path4740" /><path
         style="fill:#000000;stroke-width:0"
         inkscape:connector-curvature="0"
         d="m 228.63,656.56 -0.01,-0.02 0,-0.02 -0.01,-0.03 -0.01,-0.02 -0.01,-0.02 0,-0.01 -0.01,-0.02 0,-0.02 0,-0.02 -0.01,-0.01 0,-0.02 0,-0.01 0,-0.01 0,-0.01 0,-0.01 -0.01,-0.01 0,-0.02 0,-0.01 0,-0.01 c 0,-0.33 0.28,-0.59 0.67,-0.59 0.69,0 1,0.96 1,1.07 0,0.09 -0.09,0.09 -0.11,0.09 -0.1,0 -0.11,-0.04 -0.13,-0.12 -0.16,-0.56 -0.47,-0.84 -0.74,-0.84 -0.14,0 -0.18,0.09 -0.18,0.24 0,0.16 0.05,0.29 0.11,0.45 0.08,0.18 0.15,0.37 0.23,0.55 0.06,0.17 0.31,0.81 0.34,0.89 0.02,0.07 0.04,0.15 0.04,0.22 0,0.33 -0.28,0.6 -0.66,0.6 -0.69,0 -1.01,-0.95 -1.01,-1.07 0,-0.09 0.09,-0.09 0.12,-0.09 0.09,0 0.1,0.03 0.12,0.11 0.18,0.6 0.49,0.85 0.75,0.85 0.11,0 0.17,-0.06 0.17,-0.24 0,-0.16 -0.04,-0.27 -0.21,-0.7 z"
         id="path4742" /></g>    <g
       style="font-style:normal;font-variant:normal;font-weight:normal;font-stretch:normal;letter-spacing:normal;word-spacing:normal;text-anchor:start;fill:none;fill-opacity:1;fill-rule:evenodd;stroke:#000000;stroke-linecap:butt;stroke-linejoin:miter;stroke-miterlimit:10.43299961;stroke-dasharray:none;stroke-dashoffset:0;stroke-opacity:1"
       ns0:preamble=""
       ns0:text="$\\zeta_j$"
       word-spacing="normal"
       letter-spacing="normal"
       font-size-adjust="none"
       font-stretch="normal"
       font-weight="normal"
       font-variant="normal"
       font-style="normal"
       stroke-miterlimit="10.433"
       xml:space="preserve"
       transform="matrix(2.9364477,0,0,-2.9364477,-196.24801,2069.848)"
       id="g4930"><path
         id="path4932"
         d="m 226.66,663 0.02,-0.02 0.01,-0.01 0.02,-0.01 0.02,-0.02 0.02,-0.01 0.02,-0.01 0.01,-0.01 0.02,-0.01 0.02,-0.01 0.02,-0.01 0.02,-0.01 0.02,0 0.02,-0.01 0.02,-0.01 0.02,0 0.02,-0.01 0.02,0 0.02,0 0.04,-0.01 0.04,0 0.03,-0.01 0.04,0 0.04,0 0.04,0 0.04,0 0.01,0.22 c -0.21,0 -0.28,0 -0.39,0.07 l 0,0 c 0.15,0.07 0.33,0.07 0.46,0.07 0.33,0 0.37,-0.01 0.55,-0.06 -0.08,-0.03 -0.18,-0.08 -0.62,-0.08 l -0.01,-0.22 c 0.25,0 0.88,0 0.88,0.31 0,0.25 -0.39,0.27 -0.79,0.27 -0.11,0 -0.38,0 -0.64,-0.1 -0.05,0.12 -0.07,0.17 -0.07,0.38 0,0.14 0.05,0.35 0.05,0.37 0,0.08 -0.05,0.13 -0.12,0.13 -0.18,0 -0.18,-0.46 -0.18,-0.49 0,-0.17 0.03,-0.35 0.11,-0.5 -1.05,-0.53 -2.62,-2.36 -2.62,-4.29 0,-1.41 0.91,-1.71 1.62,-1.95 0.3,-0.11 0.32,-0.11 0.61,-0.21 0.21,-0.07 0.62,-0.21 0.62,-0.67 0,-0.27 -0.19,-0.66 -0.56,-0.66 -0.26,0 -0.53,0.12 -0.73,0.3 -0.07,0.06 -0.08,0.07 -0.13,0.07 -0.04,0 -0.09,-0.04 -0.09,-0.11 0,-0.1 0.42,-0.48 0.95,-0.48 0.62,0 1.09,0.64 1.09,1.21 0,0.37 -0.19,0.58 -0.27,0.66 -0.17,0.19 -0.36,0.25 -0.95,0.45 -0.79,0.27 -0.95,0.32 -1.19,0.53 -0.42,0.38 -0.42,0.95 -0.42,1.13 0,1.55 1.21,3.29 2.22,3.83 z"
         inkscape:connector-curvature="0"
         style="fill:#000000;stroke-width:0" /><path
         id="path4934"
         d="m 230.85,660.1 0,0.01 0,0.01 0,0.01 0,0.01 0,0.02 -0.01,0.01 0,0.01 -0.01,0.01 0,0.01 0,0.01 -0.01,0.01 -0.01,0.01 0,0.02 -0.01,0.01 -0.01,0.01 -0.01,0.01 -0.01,0.01 -0.01,0 -0.01,0.01 -0.01,0.01 -0.01,0.01 -0.01,0.01 -0.01,0 -0.01,0.01 -0.02,0 -0.01,0.01 -0.02,0 -0.01,0.01 -0.02,0 -0.01,0 -0.02,0 -0.02,0 c -0.2,0 -0.39,-0.19 -0.39,-0.38 0,-0.11 0.09,-0.26 0.28,-0.26 0.19,0 0.39,0.18 0.39,0.38 z"
         inkscape:connector-curvature="0"
         style="fill:#000000;stroke-width:0" /><path
         id="path4936"
         d="m 229.37,655.4 -0.01,-0.05 -0.01,-0.04 -0.02,-0.04 -0.01,-0.05 -0.02,-0.04 -0.02,-0.04 -0.02,-0.04 -0.02,-0.04 -0.02,-0.04 -0.03,-0.04 -0.02,-0.04 -0.02,-0.03 -0.03,-0.04 -0.03,-0.03 -0.03,-0.03 -0.03,-0.03 -0.03,-0.03 -0.03,-0.03 -0.03,-0.03 -0.03,-0.02 -0.04,-0.03 -0.03,-0.02 -0.03,-0.02 -0.04,-0.02 -0.03,-0.01 -0.04,-0.02 -0.04,-0.01 -0.03,-0.01 -0.04,-0.01 -0.04,0 -0.04,-0.01 -0.04,0 c -0.09,0 -0.17,0.02 -0.25,0.04 0.18,0.09 0.24,0.26 0.24,0.36 0,0.17 -0.13,0.26 -0.27,0.26 -0.22,0 -0.4,-0.19 -0.4,-0.41 0,-0.27 0.27,-0.44 0.69,-0.44 0.42,0 1.23,0.25 1.45,1.1 l 0.63,2.5 c 0.02,0.07 0.03,0.13 0.03,0.24 0,0.38 -0.32,0.66 -0.74,0.66 -0.78,0 -1.22,-0.97 -1.22,-1.07 0,-0.09 0.09,-0.09 0.11,-0.09 0.09,0 0.1,0.02 0.14,0.12 0.18,0.41 0.54,0.84 0.95,0.84 0.17,0 0.23,-0.12 0.23,-0.34 0,-0.08 -0.01,-0.18 -0.02,-0.21 z"
         inkscape:connector-curvature="0"
         style="fill:#000000;stroke-width:0" /></g>    <g
       id="g5886"
       transform="matrix(0.62115049,0,0,0.62115049,284.30232,44.266861)"
       style="font-style:normal;font-variant:normal;font-weight:normal;font-stretch:normal;letter-spacing:normal;word-spacing:normal;text-anchor:start;fill:#800080;fill-opacity:1;fill-rule:evenodd;stroke:#000000;stroke-linecap:butt;stroke-linejoin:miter;stroke-miterlimit:10.43299961;stroke-dasharray:none;stroke-dashoffset:0;stroke-opacity:1">
      <g
         word-spacing="normal"
         letter-spacing="normal"
         font-size-adjust="none"
         font-stretch="normal"
         font-weight="normal"
         font-variant="normal"
         font-style="normal"
         stroke-miterlimit="10.433"
         xml:space="preserve"
         transform="matrix(0.91442698,0,0,-0.91442698,-160.02472,734.09447)"
         id="g5888"
         style="font-style:normal;font-variant:normal;font-weight:normal;font-stretch:normal;letter-spacing:normal;word-spacing:normal;text-anchor:start;fill:#800080;fill-opacity:1;fill-rule:evenodd;stroke:#000000;stroke-linecap:butt;stroke-linejoin:miter;stroke-miterlimit:10.43299961;stroke-dasharray:none;stroke-dashoffset:0;stroke-opacity:1"><path
           id="path5890"
           d="m 472.14,434.84 0.09,-0.08 0.08,-0.08 0.09,-0.07 0.09,-0.07 0.09,-0.06 0.09,-0.05 0.09,-0.06 0.09,-0.05 0.1,-0.04 0.09,-0.04 0.1,-0.04 0.09,-0.04 0.1,-0.03 0.1,-0.03 0.09,-0.02 0.1,-0.02 0.1,-0.02 0.1,-0.02 0.2,-0.03 0.19,-0.02 0.2,-0.01 0.2,-0.01 0.19,0 0.19,0 0.19,0 0.05,1.09 c -1.05,0 -1.4,0 -1.94,0.35 l 0,0 c 0.74,0.35 1.64,0.35 2.29,0.35 1.64,0 1.84,-0.05 2.74,-0.3 -0.4,-0.15 -0.9,-0.4 -3.09,-0.4 l -0.05,-1.09 c 1.24,0 4.43,0 4.43,1.54 0,1.24 -1.99,1.35 -3.99,1.35 -0.54,0 -1.89,0 -3.18,-0.5 -0.25,0.59 -0.35,0.84 -0.35,1.89 0,0.7 0.25,1.74 0.25,1.84 0,0.4 -0.25,0.65 -0.6,0.65 -0.9,0 -0.9,-2.29 -0.9,-2.44 0,-0.85 0.15,-1.74 0.55,-2.49 -5.23,-2.64 -13.1,-11.81 -13.1,-21.47 0,-7.02 4.53,-8.52 8.12,-9.71 1.5,-0.55 1.59,-0.55 3.04,-1.05 1.05,-0.35 3.09,-1.05 3.09,-3.39 0,-1.34 -0.95,-3.29 -2.79,-3.29 -1.3,0 -2.64,0.6 -3.69,1.5 -0.35,0.3 -0.4,0.35 -0.6,0.35 -0.25,0 -0.5,-0.2 -0.5,-0.55 0,-0.5 2.15,-2.39 4.79,-2.39 3.09,0 5.43,3.19 5.43,6.03 0,1.89 -0.95,2.93 -1.35,3.33 -0.85,0.95 -1.79,1.25 -4.73,2.24 -3.98,1.35 -4.78,1.6 -5.98,2.65 -2.09,1.89 -2.09,4.73 -2.09,5.67 0,7.72 6.08,16.44 11.11,19.13 z"
           inkscape:connector-curvature="0"
           style="fill:#800080;stroke-width:0" /><path
           id="path5892"
           d="m 488.3,420.79 0,0.06 -0.01,0.05 0,0.05 -0.01,0.06 -0.01,0.06 -0.02,0.05 -0.01,0.06 -0.02,0.06 -0.03,0.05 -0.02,0.06 -0.03,0.05 -0.03,0.06 -0.03,0.05 -0.03,0.05 -0.04,0.05 -0.04,0.05 -0.05,0.05 -0.04,0.05 -0.05,0.04 -0.06,0.05 -0.05,0.04 -0.06,0.03 -0.06,0.04 -0.07,0.03 -0.07,0.03 -0.07,0.02 -0.07,0.02 -0.08,0.02 -0.08,0.02 -0.08,0.01 -0.09,0 -0.09,0.01 c -0.94,0 -1.95,-0.91 -1.95,-1.92 0,-0.59 0.45,-1.32 1.39,-1.32 1.02,0 1.96,0.97 1.96,1.91 z"
           inkscape:connector-curvature="0"
           style="fill:#800080;stroke-width:0" /><path
           id="path5894"
           d="m 481.18,403.08 -0.05,-0.17 -0.05,-0.17 -0.03,-0.08 -0.03,-0.09 -0.02,-0.08 -0.03,-0.09 -0.02,-0.09 -0.02,-0.09 -0.01,-0.1 -0.02,-0.09 -0.01,-0.1 -0.01,-0.05 0,-0.05 0,-0.05 -0.01,-0.06 0,-0.05 0,-0.06 c 0,-1.63 1.4,-2.96 3.31,-2.96 3.49,0 5.02,4.81 5.02,5.33 0,0.46 -0.45,0.46 -0.56,0.46 -0.48,0 -0.52,-0.21 -0.66,-0.59 -0.8,-2.79 -2.33,-4.22 -3.69,-4.22 -0.7,0 -0.88,0.45 -0.88,1.22 0,0.8 0.25,1.46 0.56,2.23 0.35,0.94 0.74,1.88 1.12,2.79 0.31,0.84 1.57,4.01 1.71,4.43 0.1,0.34 0.21,0.77 0.21,1.11 0,1.64 -1.4,2.97 -3.31,2.97 -3.46,0 -5.06,-4.74 -5.06,-5.34 0,-0.45 0.49,-0.45 0.59,-0.45 0.49,0 0.52,0.17 0.63,0.56 0.91,2.99 2.44,4.25 3.73,4.25 0.56,0 0.87,-0.28 0.87,-1.22 0,-0.8 -0.21,-1.32 -1.08,-3.48 z"
           inkscape:connector-curvature="0"
           style="fill:#800080;stroke-width:0" /><path
           id="path5896"
           d="m 540.91,438.48 0,0.07 0,0.07 0,0.07 0,0.06 0,0.07 0,0.06 0,0.06 -0.01,0.06 0,0.11 -0.01,0.1 -0.01,0.1 -0.01,0.09 -0.02,0.09 -0.02,0.08 -0.02,0.07 -0.03,0.07 -0.03,0.06 -0.03,0.06 -0.04,0.05 -0.04,0.05 -0.05,0.04 -0.05,0.04 -0.05,0.04 -0.07,0.03 -0.06,0.03 -0.08,0.02 -0.08,0.02 -0.08,0.02 -0.1,0.01 -0.04,0.01 -0.06,0 -0.05,0.01 -0.05,0 -0.06,0.01 -0.06,0 -0.06,0 -0.06,0.01 -0.06,0 -0.07,0 -0.06,0 -0.07,0 -0.07,0 -0.08,0 -29.64,0 c -1.54,0 -1.74,-0.15 -1.74,-1.74 l 0,-30.69 c 0,-1.59 0.15,-1.79 1.79,-1.79 l 29.54,0 -0.2,1.99 -29.14,0 0,14.15 0,1.99 0,14.1 29.14,0 0,-14.1 -29.14,0 0,-1.99 29.14,0 0,-14.15 0.2,-1.99 c 1.65,0 1.79,0.15 1.79,1.74 z"
           inkscape:connector-curvature="0"
           style="fill:#800080;stroke-width:0" /><path
           id="path5898"
           d="m 571.14,434.84 0.09,-0.08 0.08,-0.08 0.09,-0.07 0.09,-0.07 0.09,-0.06 0.09,-0.05 0.09,-0.06 0.09,-0.05 0.1,-0.04 0.09,-0.04 0.1,-0.04 0.09,-0.04 0.1,-0.03 0.1,-0.03 0.09,-0.02 0.1,-0.02 0.1,-0.02 0.1,-0.02 0.2,-0.03 0.19,-0.02 0.2,-0.01 0.2,-0.01 0.19,0 0.19,0 0.19,0 0.05,1.09 c -1.05,0 -1.4,0 -1.95,0.35 l 0,0 c 0.75,0.35 1.65,0.35 2.3,0.35 1.64,0 1.84,-0.05 2.74,-0.3 -0.4,-0.15 -0.9,-0.4 -3.09,-0.4 l -0.05,-1.09 c 1.24,0 4.43,0 4.43,1.54 0,1.24 -1.99,1.35 -3.99,1.35 -0.54,0 -1.89,0 -3.18,-0.5 -0.25,0.59 -0.35,0.84 -0.35,1.89 0,0.7 0.25,1.74 0.25,1.84 0,0.4 -0.25,0.65 -0.6,0.65 -0.9,0 -0.9,-2.29 -0.9,-2.44 0,-0.85 0.15,-1.74 0.55,-2.49 -5.23,-2.64 -13.1,-11.81 -13.1,-21.47 0,-7.02 4.53,-8.52 8.12,-9.71 1.5,-0.55 1.59,-0.55 3.04,-1.05 1.05,-0.35 3.09,-1.05 3.09,-3.39 0,-1.34 -0.95,-3.29 -2.79,-3.29 -1.3,0 -2.64,0.6 -3.69,1.5 -0.34,0.3 -0.4,0.35 -0.59,0.35 -0.25,0 -0.5,-0.2 -0.5,-0.55 0,-0.5 2.14,-2.39 4.78,-2.39 3.09,0 5.43,3.19 5.43,6.03 0,1.89 -0.95,2.93 -1.35,3.33 -0.85,0.95 -1.79,1.25 -4.73,2.24 -3.98,1.35 -4.78,1.6 -5.98,2.65 -2.09,1.89 -2.09,4.73 -2.09,5.67 0,7.72 6.08,16.44 11.11,19.13 z"
           inkscape:connector-curvature="0"
           style="fill:#800080;stroke-width:0" /><path
           id="path5900"
           d="m 592.31,420.79 0,0.06 -0.01,0.06 0,0.05 -0.01,0.06 -0.01,0.06 -0.02,0.06 -0.02,0.05 -0.02,0.06 -0.02,0.06 -0.03,0.05 -0.02,0.06 -0.03,0.05 -0.04,0.06 -0.03,0.05 -0.04,0.05 -0.05,0.05 -0.04,0.04 -0.05,0.05 -0.05,0.04 -0.05,0.04 -0.06,0.04 -0.06,0.04 -0.06,0.03 -0.06,0.03 -0.07,0.03 -0.07,0.03 -0.07,0.02 -0.08,0.01 -0.07,0.02 -0.09,0.01 -0.08,0 -0.09,0.01 c -1.01,0 -1.95,-0.98 -1.95,-1.92 0,-0.56 0.42,-1.32 1.39,-1.32 0.95,0 1.96,0.9 1.96,1.91 z"
           inkscape:connector-curvature="0"
           style="fill:#800080;stroke-width:0" /><path
           id="path5902"
           d="m 584.91,397.29 -0.05,-0.22 -0.07,-0.22 -0.07,-0.22 -0.08,-0.22 -0.09,-0.21 -0.09,-0.21 -0.1,-0.2 -0.11,-0.2 -0.11,-0.2 -0.12,-0.19 -0.12,-0.19 -0.13,-0.18 -0.13,-0.17 -0.14,-0.17 -0.14,-0.16 -0.14,-0.15 -0.16,-0.15 -0.15,-0.14 -0.16,-0.13 -0.16,-0.13 -0.17,-0.12 -0.17,-0.1 -0.17,-0.1 -0.18,-0.09 -0.17,-0.08 -0.18,-0.07 -0.19,-0.07 -0.18,-0.05 -0.19,-0.03 -0.19,-0.03 -0.19,-0.02 -0.19,-0.01 c -0.45,0 -0.87,0.07 -1.26,0.21 0.91,0.42 1.19,1.26 1.19,1.78 0,0.84 -0.67,1.29 -1.36,1.29 -1.08,0 -1.99,-0.94 -1.99,-2.06 0,-1.32 1.36,-2.19 3.45,-2.19 2.09,0 6.17,1.25 7.25,5.5 l 3.14,12.49 c 0.11,0.38 0.18,0.7 0.18,1.22 0,1.92 -1.64,3.28 -3.74,3.28 -3.87,0 -6.1,-4.85 -6.1,-5.34 0,-0.45 0.49,-0.45 0.6,-0.45 0.42,0 0.45,0.11 0.69,0.62 0.88,2.03 2.69,4.19 4.71,4.19 0.87,0 1.19,-0.59 1.19,-1.71 0,-0.38 -0.07,-0.87 -0.11,-1.05 z"
           inkscape:connector-curvature="0"
           style="fill:#800080;stroke-width:0" /></g>    </g>
    <g
       transform="matrix(0.70603536,0,0,0.70603536,33.94889,164.72943)"
       id="g6074"
       style="font-style:normal;font-variant:normal;font-weight:normal;font-stretch:normal;letter-spacing:normal;word-spacing:normal;text-anchor:start;fill:none;fill-opacity:1;fill-rule:evenodd;stroke:#000000;stroke-linecap:butt;stroke-linejoin:miter;stroke-miterlimit:10.43299961;stroke-dasharray:none;stroke-dashoffset:0;stroke-opacity:1">
      <g
         style="font-style:normal;font-variant:normal;font-weight:normal;font-stretch:normal;letter-spacing:normal;word-spacing:normal;text-anchor:start;fill:none;fill-opacity:1;fill-rule:evenodd;stroke:#000000;stroke-linecap:butt;stroke-linejoin:miter;stroke-miterlimit:10.43299961;stroke-dasharray:none;stroke-dashoffset:0;stroke-opacity:1"
         id="g6076"
         transform="matrix(0.91442698,0,0,-0.91442698,-160.02472,734.09447)"
         xml:space="preserve"
         stroke-miterlimit="10.433"
         font-style="normal"
         font-variant="normal"
         font-weight="normal"
         font-stretch="normal"
         font-size-adjust="none"
         letter-spacing="normal"
         word-spacing="normal"><path
           style="fill:#000000;stroke-width:0"
           inkscape:connector-curvature="0"
           d="m 477.27,436.24 0.03,0.13 0.03,0.12 0.03,0.11 0.03,0.11 0.03,0.11 0.03,0.09 0.03,0.1 0.03,0.08 0.03,0.09 0.03,0.07 0.03,0.08 0.03,0.06 0.03,0.07 0.03,0.06 0.03,0.05 0.03,0.06 0.03,0.04 0.03,0.05 0.04,0.04 0.03,0.04 0.04,0.03 0.03,0.04 0.04,0.03 0.04,0.02 0.04,0.03 0.05,0.02 0.04,0.02 0.05,0.02 0.05,0.02 0.05,0.02 0.05,0.01 0.05,0.02 c 0.45,0.1 2.1,0.1 3.14,0.1 5.04,0 7.28,-0.2 7.28,-4.09 0,-0.74 -0.2,-2.68 -0.4,-3.98 -0.05,-0.2 -0.15,-0.8 -0.15,-0.95 0,-0.3 0.15,-0.64 0.6,-0.64 0.55,0 0.64,0.39 0.74,1.14 l 1.35,8.67 c 0.05,0.2 0.1,0.7 0.1,0.85 0,0.54 -0.5,0.54 -1.35,0.54 l -27.64,0 c -1.2,0 -1.25,-0.05 -1.6,-0.99 l -2.98,-8.77 c -0.05,-0.1 -0.3,-0.8 -0.3,-0.9 0,-0.29 0.25,-0.54 0.59,-0.54 0.5,0 0.55,0.25 0.85,1.04 2.69,7.72 3.98,8.62 11.36,8.62 l 1.94,0 c 1.4,0 1.4,-0.2 1.4,-0.6 0,-0.3 -0.16,-0.9 -0.2,-1.04 l -6.68,-26.61 c -0.45,-1.84 -0.6,-2.39 -5.93,-2.39 -1.79,0 -2.09,0 -2.09,-0.94 0,-0.6 0.55,-0.6 0.85,-0.6 1.34,0 2.74,0.1 4.08,0.1 l 8.37,0 c 1.44,0 2.94,-0.1 4.33,-0.1 0.5,0 1.1,0 1.1,1 0,0.54 -0.4,0.54 -1.69,0.54 -1.25,0 -1.89,0 -3.19,0.1 -1.45,0.15 -1.84,0.3 -1.84,1.1 0,0.05 0,0.3 0.19,1.05 z"
           id="path6078" /><path
           style="fill:#000000;stroke-width:0"
           inkscape:connector-curvature="0"
           d="m 497.52,418.8 0.07,-0.06 0.06,-0.06 0.07,-0.05 0.08,-0.05 0.07,-0.05 0.07,-0.05 0.08,-0.04 0.08,-0.04 0.07,-0.03 0.08,-0.03 0.08,-0.03 0.08,-0.03 0.08,-0.03 0.08,-0.02 0.08,-0.02 0.08,-0.01 0.08,-0.02 0.08,-0.01 0.16,-0.02 0.15,-0.02 0.15,-0.01 0.15,-0.01 0.07,0 0.07,0 0.06,0 0.07,0 0.06,0 0.06,0 c 1.08,0 3.45,0 3.45,1.29 0,1.05 -1.81,1.08 -3.1,1.08 l -0.04,-0.98 c 0.98,0 1.12,-0.03 1.78,-0.17 l 0,-0.04 -3.35,0 c 0.56,0.21 1.05,0.21 1.57,0.21 l 0.04,0.98 c -0.6,0 -1.4,0 -2.3,-0.35 -0.04,0.14 -0.21,0.63 -0.21,1.26 0,0.14 0.07,0.8 0.14,1.18 0.03,0.04 0.07,0.18 0.07,0.25 0,0.27 -0.25,0.56 -0.56,0.56 -0.8,0 -0.8,-1.33 -0.8,-1.92 0,-0.42 0,-1.05 0.35,-1.78 -4.5,-2.3 -9.66,-8.44 -9.66,-14.68 0,-1.92 0.52,-3.56 1.95,-5.02 1.15,-1.16 2.06,-1.4 6.48,-2.76 1.26,-0.35 2.55,-0.77 2.55,-2.3 0,-0.94 -0.59,-2.06 -1.74,-2.06 -0.6,0 -1.68,0.14 -2.86,0.98 -0.21,0.14 -0.28,0.21 -0.45,0.21 -0.39,0 -0.49,-0.32 -0.49,-0.49 0,-0.52 2.02,-1.67 3.8,-1.67 2.44,0 3.94,2.47 3.94,4.29 0,1.53 -0.95,2.68 -2.2,3.24 -0.35,0.14 -1.95,0.63 -2.93,0.9 -2.68,0.81 -3.62,1.09 -4.5,2.1 -0.94,1.04 -1.29,2.23 -1.29,3.69 0,5.16 4.33,10.74 7.99,12.69 z"
           id="path6080" /><path
           style="fill:#000000;stroke-width:0"
           inkscape:connector-curvature="0"
           d="m 512.86,409.54 0,0.06 0,0.05 -0.01,0.06 -0.01,0.05 -0.01,0.05 -0.01,0.05 -0.02,0.05 -0.02,0.05 -0.02,0.05 -0.02,0.05 -0.03,0.04 -0.02,0.04 -0.03,0.05 -0.03,0.04 -0.04,0.04 -0.03,0.03 -0.04,0.04 -0.04,0.03 -0.04,0.03 -0.04,0.03 -0.05,0.03 -0.04,0.03 -0.05,0.02 -0.05,0.02 -0.05,0.02 -0.05,0.02 -0.06,0.01 -0.05,0.01 -0.06,0.01 -0.05,0.01 -0.06,0 -0.06,0 c -0.7,0 -1.52,-0.67 -1.52,-1.49 0,-0.7 0.55,-1.07 1.07,-1.07 0.82,0 1.54,0.74 1.54,1.49 z"
           id="path6082" /><path
           style="fill:#000000;stroke-width:0"
           inkscape:connector-curvature="0"
           d="m 514.03,397.59 0,0.01 0,0.02 0,0.01 0,0.02 0,0.01 -0.01,0.01 0,0.02 0,0.01 -0.01,0.01 0,0.01 -0.01,0.02 0,0.01 -0.01,0.01 -0.01,0.01 -0.01,0.01 0,0.01 -0.01,0.01 -0.01,0 -0.01,0.01 -0.01,0.01 -0.02,0.02 -0.01,0.01 -0.03,0.01 -0.02,0.01 -0.02,0.01 -0.02,0.01 -0.02,0.01 -0.02,0 -0.03,0.01 -0.02,0.01 -0.02,0 -0.02,0 -0.02,0.01 -0.03,0 -0.02,0 -0.01,0 -0.02,0 -0.02,0 -0.01,0 -0.02,0 -0.01,0 0,0 -0.01,0 c -0.42,0 -0.45,-0.09 -0.6,-0.57 -0.42,-1.37 -1.54,-2.79 -2.79,-2.79 -0.57,0 -0.74,0.4 -0.74,0.95 0,0.52 0.12,0.8 0.32,1.27 0.2,0.5 0.4,1 0.52,1.34 0.1,0.23 1.07,2.55 1.42,3.44 0.2,0.5 0.35,0.82 0.35,1.25 0,1.19 -1.15,2.19 -2.71,2.19 -2.62,0 -4.01,-3.19 -4.01,-3.86 0,-0.35 0.39,-0.35 0.52,-0.35 0.42,0 0.45,0.13 0.57,0.5 0.55,1.77 1.75,2.86 2.82,2.86 0.47,0 0.75,-0.27 0.75,-0.95 0,-0.09 0,-0.42 -0.16,-0.89 -0.17,-0.45 -1.29,-3.11 -1.64,-3.96 -0.17,-0.43 -0.17,-0.47 -0.55,-1.32 -0.12,-0.35 -0.27,-0.7 -0.27,-1.12 0,-1.3 1.22,-2.19 2.71,-2.19 2.62,0 4.01,3.23 4.01,3.86 z"
           id="path6084" /></g>    </g>
    <g
       id="g6926"
       transform="matrix(0.69024373,0,0,0.69024373,144.4425,-191.81071)">
      <g
         word-spacing="normal"
         letter-spacing="normal"
         font-size-adjust="none"
         font-stretch="normal"
         font-weight="normal"
         font-variant="normal"
         font-style="normal"
         stroke-miterlimit="10.433"
         xml:space="preserve"
         transform="matrix(0.91442698,0,0,-0.91442698,-160.02472,734.09447)"
         id="g6928"
         style="font-style:normal;font-variant:normal;font-weight:normal;font-stretch:normal;letter-spacing:normal;word-spacing:normal;text-anchor:start;fill:none;fill-opacity:1;fill-rule:evenodd;stroke:#000000;stroke-linecap:butt;stroke-linejoin:miter;stroke-miterlimit:10.43299961;stroke-dasharray:none;stroke-dashoffset:0;stroke-opacity:1"><path
           id="path6930"
           d="m 478.52,427.47 0,0.02 -0.01,0.02 0,0.02 0,0.02 -0.01,0.02 0,0.02 -0.01,0.02 0,0.02 -0.01,0.02 -0.01,0.02 -0.01,0.02 -0.01,0.02 -0.01,0.03 -0.01,0.02 -0.02,0.01 -0.01,0.02 -0.02,0.02 -0.01,0.02 -0.02,0.02 -0.02,0.01 -0.02,0.02 -0.02,0.01 -0.02,0.02 -0.03,0.01 -0.02,0.01 -0.03,0.01 -0.02,0.01 -0.03,0.01 -0.03,0 -0.03,0.01 -0.03,0 -0.02,0 -0.01,0 c -0.55,0 -2.54,-1.99 -3.39,-3.44 -1.09,2.69 -3.04,3.49 -4.63,3.49 l 0,-1.1 c 3.23,0 3.93,-4.03 3.93,-4.38 0,-0.3 -2.74,-11.21 -2.89,-11.41 -0.74,-1.4 -3.53,-4.58 -6.32,-4.58 l 0,0 c -2.99,0 -3.19,3.83 -3.19,4.68 0,2.39 1.44,7.82 2.29,9.91 1.54,3.69 4.14,5.78 6.18,5.78 l 0,1.1 c -5.88,0 -12.01,-7.38 -12.01,-14.6 0,-4.88 2.94,-7.97 6.58,-7.97 2.14,0 4.08,1.2 5.88,2.99 -0.45,-1.74 -2.09,-8.47 -2.25,-8.92 -0.4,-1.39 -0.79,-1.59 -3.58,-1.64 -0.65,0 -1.15,0 -1.15,-1 0,-0.04 0,-0.54 0.65,-0.54 l 10.11,0 c 0.25,0 0.9,0 0.9,0.99 0,0.55 -0.5,0.55 -1.3,0.55 -2.39,0 -2.39,0.35 -2.39,0.8 0,0.35 0.1,0.64 0.2,1.09 z"
           inkscape:connector-curvature="0"
           style="fill:#000000;stroke-width:0" /><path
           id="path6932"
           d="m 490.52,418.8 0.07,-0.06 0.06,-0.06 0.07,-0.05 0.08,-0.05 0.07,-0.05 0.07,-0.05 0.08,-0.04 0.08,-0.04 0.07,-0.03 0.08,-0.03 0.08,-0.03 0.08,-0.03 0.08,-0.03 0.08,-0.02 0.08,-0.02 0.08,-0.01 0.08,-0.02 0.08,-0.01 0.16,-0.02 0.15,-0.02 0.15,-0.01 0.15,-0.01 0.07,0 0.07,0 0.06,0 0.07,0 0.06,0 0.06,0 c 1.08,0 3.45,0 3.45,1.29 0,1.05 -1.81,1.08 -3.1,1.08 l -0.04,-0.98 c 0.98,0 1.12,-0.03 1.78,-0.17 l 0,-0.04 -3.35,0 c 0.56,0.21 1.05,0.21 1.57,0.21 l 0.04,0.98 c -0.6,0 -1.4,0 -2.3,-0.35 -0.04,0.14 -0.21,0.63 -0.21,1.26 0,0.14 0.07,0.8 0.14,1.18 0.03,0.04 0.07,0.18 0.07,0.25 0,0.27 -0.25,0.56 -0.56,0.56 -0.8,0 -0.8,-1.33 -0.8,-1.92 0,-0.42 0,-1.05 0.35,-1.78 -4.5,-2.3 -9.66,-8.44 -9.66,-14.68 0,-1.92 0.52,-3.56 1.95,-5.02 1.15,-1.16 2.06,-1.4 6.48,-2.76 1.26,-0.35 2.55,-0.77 2.55,-2.3 0,-0.94 -0.59,-2.06 -1.74,-2.06 -0.6,0 -1.68,0.14 -2.86,0.98 -0.21,0.14 -0.28,0.21 -0.45,0.21 -0.39,0 -0.49,-0.32 -0.49,-0.49 0,-0.52 2.02,-1.67 3.8,-1.67 2.44,0 3.94,2.47 3.94,4.29 0,1.53 -0.95,2.68 -2.2,3.24 -0.35,0.14 -1.95,0.63 -2.93,0.9 -2.68,0.81 -3.62,1.09 -4.5,2.1 -0.94,1.04 -1.29,2.23 -1.29,3.69 0,5.16 4.33,10.74 7.99,12.69 z"
           inkscape:connector-curvature="0"
           style="fill:#000000;stroke-width:0" /><path
           id="path6934"
           d="m 505.86,409.54 0,0.06 0,0.05 -0.01,0.06 -0.01,0.05 -0.01,0.05 -0.01,0.05 -0.02,0.05 -0.02,0.05 -0.02,0.05 -0.02,0.05 -0.03,0.04 -0.02,0.04 -0.03,0.05 -0.03,0.04 -0.04,0.04 -0.03,0.03 -0.04,0.04 -0.04,0.03 -0.04,0.03 -0.04,0.03 -0.05,0.03 -0.04,0.03 -0.05,0.02 -0.05,0.02 -0.05,0.02 -0.05,0.02 -0.06,0.01 -0.05,0.01 -0.06,0.01 -0.05,0.01 -0.06,0 -0.06,0 c -0.7,0 -1.52,-0.67 -1.52,-1.49 0,-0.7 0.55,-1.07 1.07,-1.07 0.82,0 1.54,0.74 1.54,1.49 z"
           inkscape:connector-curvature="0"
           style="fill:#000000;stroke-width:0" /><path
           id="path6936"
           d="m 507.04,397.59 -0.01,0.01 0,0.02 0,0.01 0,0.02 0,0.01 -0.01,0.01 0,0.02 0,0.01 -0.01,0.01 0,0.01 -0.01,0.02 0,0.01 -0.01,0.01 -0.01,0.01 -0.01,0.01 0,0.01 -0.01,0.01 -0.01,0 -0.01,0.01 -0.01,0.01 -0.02,0.02 -0.01,0.01 -0.03,0.01 -0.02,0.01 -0.02,0.01 -0.02,0.01 -0.02,0.01 -0.02,0 -0.03,0.01 -0.02,0.01 -0.02,0 -0.02,0 -0.02,0.01 -0.03,0 -0.02,0 -0.01,0 -0.02,0 -0.02,0 -0.01,0 -0.02,0 -0.01,0 0,0 -0.01,0 c -0.42,0 -0.45,-0.09 -0.6,-0.57 -0.42,-1.37 -1.54,-2.79 -2.79,-2.79 -0.57,0 -0.74,0.4 -0.74,0.95 0,0.52 0.12,0.8 0.32,1.27 0.2,0.5 0.4,1 0.52,1.34 0.1,0.23 1.07,2.55 1.42,3.44 0.2,0.5 0.35,0.82 0.35,1.25 0,1.19 -1.15,2.19 -2.71,2.19 -2.62,0 -4.01,-3.19 -4.01,-3.86 0,-0.35 0.39,-0.35 0.52,-0.35 0.42,0 0.45,0.13 0.57,0.5 0.55,1.77 1.75,2.86 2.82,2.86 0.47,0 0.75,-0.27 0.75,-0.95 0,-0.09 0,-0.42 -0.16,-0.89 -0.17,-0.45 -1.29,-3.11 -1.64,-3.96 -0.17,-0.43 -0.17,-0.47 -0.55,-1.32 -0.12,-0.35 -0.27,-0.7 -0.27,-1.12 0,-1.3 1.22,-2.19 2.71,-2.19 2.62,0 4.02,3.23 4.02,3.86 z"
           inkscape:connector-curvature="0"
           style="fill:#000000;stroke-width:0" /></g>    </g>
    <g
       transform="matrix(0.67067011,0,0,0.67067011,254.06461,-160.35434)"
       id="g7158">
      <g
         style="font-style:normal;font-variant:normal;font-weight:normal;font-stretch:normal;letter-spacing:normal;word-spacing:normal;text-anchor:start;fill:none;fill-opacity:1;fill-rule:evenodd;stroke:#000000;stroke-linecap:butt;stroke-linejoin:miter;stroke-miterlimit:10.43299961;stroke-dasharray:none;stroke-dashoffset:0;stroke-opacity:1"
         id="g7160"
         transform="matrix(0.91442698,0,0,-0.91442698,-160.02472,734.09447)"
         xml:space="preserve"
         stroke-miterlimit="10.433"
         font-style="normal"
         font-variant="normal"
         font-weight="normal"
         font-stretch="normal"
         font-size-adjust="none"
         letter-spacing="normal"
         word-spacing="normal"><path
           style="fill:#000000;stroke-width:0"
           inkscape:connector-curvature="0"
           d="m 478.52,427.47 0,0.02 -0.01,0.02 0,0.02 0,0.02 -0.01,0.02 0,0.02 -0.01,0.02 0,0.02 -0.01,0.02 -0.01,0.02 -0.01,0.02 -0.01,0.02 -0.01,0.03 -0.01,0.02 -0.02,0.01 -0.01,0.02 -0.02,0.02 -0.01,0.02 -0.02,0.02 -0.02,0.01 -0.02,0.02 -0.02,0.01 -0.02,0.02 -0.03,0.01 -0.02,0.01 -0.03,0.01 -0.02,0.01 -0.03,0.01 -0.03,0 -0.03,0.01 -0.03,0 -0.02,0 -0.01,0 c -0.55,0 -2.54,-1.99 -3.39,-3.44 -1.09,2.69 -3.04,3.49 -4.63,3.49 l 0,-1.1 c 3.23,0 3.93,-4.03 3.93,-4.38 0,-0.3 -2.74,-11.21 -2.89,-11.41 -0.74,-1.4 -3.53,-4.58 -6.32,-4.58 l 0,0 c -2.99,0 -3.19,3.83 -3.19,4.68 0,2.39 1.44,7.82 2.29,9.91 1.54,3.69 4.14,5.78 6.18,5.78 l 0,1.1 c -5.88,0 -12.01,-7.38 -12.01,-14.6 0,-4.88 2.94,-7.97 6.58,-7.97 2.14,0 4.08,1.2 5.88,2.99 -0.45,-1.74 -2.09,-8.47 -2.25,-8.92 -0.4,-1.39 -0.79,-1.59 -3.58,-1.64 -0.65,0 -1.15,0 -1.15,-1 0,-0.04 0,-0.54 0.65,-0.54 l 10.11,0 c 0.25,0 0.9,0 0.9,0.99 0,0.55 -0.5,0.55 -1.3,0.55 -2.39,0 -2.39,0.35 -2.39,0.8 0,0.35 0.1,0.64 0.2,1.09 z"
           id="path7162" /><path
           style="fill:#000000;stroke-width:0"
           inkscape:connector-curvature="0"
           d="m 490.52,418.8 0.07,-0.06 0.06,-0.06 0.07,-0.05 0.08,-0.05 0.07,-0.05 0.07,-0.05 0.08,-0.04 0.08,-0.04 0.07,-0.03 0.08,-0.03 0.08,-0.03 0.08,-0.03 0.08,-0.03 0.08,-0.02 0.08,-0.02 0.08,-0.01 0.08,-0.02 0.08,-0.01 0.16,-0.02 0.15,-0.02 0.15,-0.01 0.15,-0.01 0.07,0 0.07,0 0.06,0 0.07,0 0.06,0 0.06,0 c 1.08,0 3.45,0 3.45,1.29 0,1.05 -1.81,1.08 -3.1,1.08 l -0.04,-0.98 c 0.98,0 1.12,-0.03 1.78,-0.17 l 0,-0.04 -3.35,0 c 0.56,0.21 1.05,0.21 1.57,0.21 l 0.04,0.98 c -0.6,0 -1.4,0 -2.3,-0.35 -0.04,0.14 -0.21,0.63 -0.21,1.26 0,0.14 0.07,0.8 0.14,1.18 0.03,0.04 0.07,0.18 0.07,0.25 0,0.27 -0.25,0.56 -0.56,0.56 -0.8,0 -0.8,-1.33 -0.8,-1.92 0,-0.42 0,-1.05 0.35,-1.78 -4.5,-2.3 -9.66,-8.44 -9.66,-14.68 0,-1.92 0.52,-3.56 1.95,-5.02 1.15,-1.16 2.06,-1.4 6.48,-2.76 1.26,-0.35 2.55,-0.77 2.55,-2.3 0,-0.94 -0.59,-2.06 -1.74,-2.06 -0.6,0 -1.68,0.14 -2.86,0.98 -0.21,0.14 -0.28,0.21 -0.45,0.21 -0.39,0 -0.49,-0.32 -0.49,-0.49 0,-0.52 2.02,-1.67 3.8,-1.67 2.44,0 3.94,2.47 3.94,4.29 0,1.53 -0.95,2.68 -2.2,3.24 -0.35,0.14 -1.95,0.63 -2.93,0.9 -2.68,0.81 -3.62,1.09 -4.5,2.1 -0.94,1.04 -1.29,2.23 -1.29,3.69 0,5.16 4.33,10.74 7.99,12.69 z"
           id="path7164" /><path
           style="fill:#000000;stroke-width:0"
           inkscape:connector-curvature="0"
           d="m 508.7,409.54 0,0.06 0,0.05 -0.01,0.05 -0.01,0.05 -0.01,0.05 -0.01,0.05 -0.02,0.05 -0.01,0.05 -0.02,0.05 -0.03,0.04 -0.02,0.05 -0.03,0.04 -0.03,0.04 -0.03,0.04 -0.03,0.04 -0.03,0.04 -0.04,0.04 -0.04,0.03 -0.04,0.03 -0.04,0.03 -0.05,0.03 -0.04,0.03 -0.05,0.02 -0.05,0.03 -0.05,0.02 -0.05,0.01 -0.06,0.02 -0.05,0.01 -0.06,0.01 -0.06,0.01 -0.06,0 -0.06,0 c -0.77,0 -1.55,-0.74 -1.55,-1.49 0,-0.6 0.48,-1.07 1.1,-1.07 0.84,0 1.54,0.79 1.54,1.49 z"
           id="path7166" /><path
           style="fill:#000000;stroke-width:0"
           inkscape:connector-curvature="0"
           d="m 503.27,392.88 -0.04,-0.18 -0.06,-0.17 -0.06,-0.17 -0.06,-0.16 -0.07,-0.16 -0.08,-0.15 -0.08,-0.15 -0.09,-0.15 -0.09,-0.14 -0.1,-0.14 -0.1,-0.13 -0.1,-0.13 -0.11,-0.12 -0.11,-0.11 -0.12,-0.11 -0.12,-0.11 -0.12,-0.1 -0.12,-0.09 -0.13,-0.09 -0.13,-0.09 -0.13,-0.07 -0.13,-0.07 -0.14,-0.07 -0.14,-0.05 -0.14,-0.06 -0.14,-0.04 -0.14,-0.04 -0.14,-0.03 -0.14,-0.03 -0.14,-0.01 -0.15,-0.01 -0.14,-0.01 c -0.42,0 -0.69,0.08 -0.9,0.13 0.6,0.34 0.78,0.99 0.78,1.32 0,0.42 -0.3,1.02 -1.13,1.02 -0.84,0 -1.54,-0.78 -1.54,-1.6 0,-1.07 1.12,-1.72 2.81,-1.72 1.7,0 4.94,0.88 5.71,3.97 l 2.24,8.91 c 0.05,0.25 0.12,0.47 0.12,0.82 0,1.42 -1.32,2.42 -3.06,2.42 -3.01,0 -4.85,-3.37 -4.85,-3.86 0,-0.35 0.4,-0.35 0.52,-0.35 0.37,0 0.42,0.1 0.55,0.35 1.14,2.44 2.84,3.01 3.68,3.01 1,0 1.05,-0.89 1.05,-1.32 0,-0.35 -0.03,-0.45 -0.08,-0.64 z"
           id="path7168" /></g>    </g>
    <g
       id="g4402"
       transform="matrix(0.76784042,0,0,0.76784042,390.57258,204.79799)">
      <g
         word-spacing="normal"
         letter-spacing="normal"
         font-size-adjust="none"
         font-stretch="normal"
         font-weight="normal"
         font-variant="normal"
         font-style="normal"
         stroke-miterlimit="10.433"
         xml:space="preserve"
         transform="matrix(0.6723981,0,0,-0.6723981,-117.66967,486.94872)"
         id="g4404"
         style="font-style:normal;font-variant:normal;font-weight:normal;font-stretch:normal;letter-spacing:normal;word-spacing:normal;text-anchor:start;fill:none;fill-opacity:1;fill-rule:evenodd;stroke:#000000;stroke-linecap:butt;stroke-linejoin:miter;stroke-miterlimit:10.43299961;stroke-dasharray:none;stroke-dashoffset:0;stroke-opacity:1"><path
           id="path4406"
           d="m 467.16,428.41 -8.67,-0.39 0,-2.34 c 2.94,0 3.29,0 3.29,-1.95 l 0,-15.39 -3.44,0 0,-2.34 11.91,0 0,2.34 -3.09,0 z"
           inkscape:connector-curvature="0"
           style="fill:#000000;stroke-width:0" /><path
           id="path4408"
           d="m 467.66,436.73 -0.01,0.21 -0.01,0.2 -0.03,0.2 -0.04,0.19 -0.04,0.19 -0.05,0.19 -0.07,0.18 -0.07,0.18 -0.08,0.17 -0.08,0.17 -0.1,0.16 -0.1,0.16 -0.11,0.15 -0.12,0.15 -0.12,0.14 -0.13,0.13 -0.14,0.13 -0.14,0.12 -0.15,0.11 -0.15,0.11 -0.16,0.1 -0.16,0.09 -0.17,0.09 -0.17,0.07 -0.18,0.07 -0.17,0.06 -0.19,0.05 -0.18,0.04 -0.19,0.04 -0.19,0.02 -0.19,0.02 -0.2,0 c -2.14,0 -3.88,-1.74 -3.88,-3.89 0,-2.14 1.74,-3.88 3.88,-3.88 2.09,0 3.89,1.69 3.89,3.88 z"
           inkscape:connector-curvature="0"
           style="fill:#000000;stroke-width:0" /></g>    </g>
    <g
       id="g4580"
       transform="matrix(0.76784042,0,0,0.76784042,432.71545,101.22653)">
      <g
         id="g4582"
         transform="matrix(0.6723981,0,0,-0.6723981,-117.66967,486.94872)"
         xml:space="preserve"
         stroke-miterlimit="10.433"
         font-style="normal"
         font-variant="normal"
         font-weight="normal"
         font-stretch="normal"
         font-size-adjust="none"
         letter-spacing="normal"
         word-spacing="normal"
         style="font-style:normal;font-variant:normal;font-weight:normal;font-stretch:normal;letter-spacing:normal;word-spacing:normal;text-anchor:start;fill:none;fill-opacity:1;fill-rule:evenodd;stroke:#000000;stroke-linecap:butt;stroke-linejoin:miter;stroke-miterlimit:10.43299961;stroke-dasharray:none;stroke-dashoffset:0;stroke-opacity:1"><path
           d="m 460.13,428.02 0,-2.34 c 0.85,0 1.95,0 2.69,-0.1 1.1,-0.2 1.1,-0.85 1.1,-1.9 l 0,-19.77 c 0,-2.49 -0.75,-6.08 -3.74,-6.08 -0.79,0 -1.19,0.1 -1.94,0.3 0.95,0.7 1.2,1.74 1.2,2.49 0,1.74 -1.3,3.09 -3.09,3.09 -1.89,0 -3.14,-1.35 -3.14,-3.14 0,-2.84 2.99,-4.53 7.08,-4.53 4.28,0 9.01,2.59 9.01,7.87 l 0,24.5 z"
           id="path4584"
           inkscape:connector-curvature="0"
           style="fill:#000000;stroke-width:0" /><path
           d="m 469.3,436.73 0,0.2 -0.02,0.2 -0.02,0.19 -0.04,0.2 -0.04,0.18 -0.05,0.19 -0.07,0.18 -0.06,0.17 -0.08,0.18 -0.09,0.16 -0.09,0.17 -0.1,0.15 -0.11,0.16 -0.12,0.14 -0.12,0.15 -0.13,0.13 -0.13,0.13 -0.14,0.12 -0.15,0.12 -0.15,0.11 -0.16,0.1 -0.16,0.09 -0.17,0.09 -0.17,0.07 -0.18,0.07 -0.18,0.07 -0.19,0.05 -0.18,0.04 -0.19,0.04 -0.2,0.02 -0.2,0.02 -0.2,0 c -2.14,0 -3.88,-1.74 -3.88,-3.89 0,-2.14 1.74,-3.88 3.88,-3.88 2.15,0 3.89,1.74 3.89,3.88 z"
           id="path4586"
           inkscape:connector-curvature="0"
           style="fill:#000000;stroke-width:0" /></g>    </g>
    <g
       id="g4766"
       transform="matrix(0.76784042,0,0,0.76784042,232.71538,-166.63069)">
      <g
         word-spacing="normal"
         letter-spacing="normal"
         font-size-adjust="none"
         font-stretch="normal"
         font-weight="normal"
         font-variant="normal"
         font-style="normal"
         stroke-miterlimit="10.433"
         xml:space="preserve"
         transform="matrix(0.6723981,0,0,-0.6723981,-117.66967,486.94872)"
         id="g4768"
         style="font-style:normal;font-variant:normal;font-weight:normal;font-stretch:normal;letter-spacing:normal;word-spacing:normal;text-anchor:start;fill:none;fill-opacity:1;fill-rule:evenodd;stroke:#000000;stroke-linecap:butt;stroke-linejoin:miter;stroke-miterlimit:10.43299961;stroke-dasharray:none;stroke-dashoffset:0;stroke-opacity:1"><path
           id="path4770"
           d="m 466.66,417.8 0,22.77 -8.82,-0.4 0,-2.34 c 3.09,0 3.44,0 3.44,-1.94 l 0,-27.55 -3.44,0 0,-2.34 12.01,0 0,2.34 -3.44,0 0,6.33 c 1.45,1.14 1.84,1.44 2.84,2.14 l 5.03,-6.28 c 0.45,-0.6 1.25,-1.59 1.25,-1.74 0,-0.45 -0.9,-0.45 -1.55,-0.45 l 0,-2.34 11.26,0 0,2.34 -0.85,0 c -2.14,0 -2.29,0.2 -2.94,1 l -8.41,10.51 6.47,5.03 c 0.7,0.55 1.15,0.9 4.49,0.9 l 0,2.34 -9.62,0 0,-2.34 c 1.15,0 1.3,-0.16 1.69,-0.55 z"
           inkscape:connector-curvature="0"
           style="fill:#000000;stroke-width:0" /></g>    </g>
  </g>
</svg>
