<?xml version="1.0" encoding="UTF-8" standalone="no"?>
<!-- Created with Inkscape (http://www.inkscape.org/) -->

<svg
   xmlns:dc="http://purl.org/dc/elements/1.1/"
   xmlns:cc="http://creativecommons.org/ns#"
   xmlns:rdf="http://www.w3.org/1999/02/22-rdf-syntax-ns#"
   xmlns:svg="http://www.w3.org/2000/svg"
   xmlns="http://www.w3.org/2000/svg"
   xmlns:sodipodi="http://sodipodi.sourceforge.net/DTD/sodipodi-0.dtd"
   xmlns:inkscape="http://www.inkscape.org/namespaces/inkscape"
   id="svg15502"
   version="1.1"
   inkscape:version="0.91 r13725"
   xml:space="preserve"
   width="572.94794"
   height="507.02182"
   viewBox="0 0 572.94794 507.02182"
   sodipodi:docname="pixel_geometry.svg"><sodipodi:namedview
     pagecolor="#ffffff"
     bordercolor="#666666"
     borderopacity="1"
     objecttolerance="10"
     gridtolerance="10"
     guidetolerance="10"
     inkscape:pageopacity="0"
     inkscape:pageshadow="2"
     inkscape:window-width="1920"
     inkscape:window-height="1173"
     id="namedview15504"
     showgrid="false"
     inkscape:zoom="0.93930348"
     inkscape:cx="-70.373177"
     inkscape:cy="138.36276"
     inkscape:window-x="0"
     inkscape:window-y="27"
     inkscape:window-maximized="1"
     inkscape:current-layer="g15512"
     fit-margin-top="0"
     fit-margin-left="0"
     fit-margin-right="0"
     fit-margin-bottom="0" /><metadata
     id="metadata15508"><rdf:RDF><cc:Work
         rdf:about=""><dc:format>image/svg+xml</dc:format><dc:type
           rdf:resource="http://purl.org/dc/dcmitype/StillImage" /><dc:title></dc:title></cc:Work></rdf:RDF></metadata><defs
     id="defs15506" /><g
     transform="matrix(1.25,0,0,-1.25,0.00157148,501.39989)"
     inkscape:label="pixel_geometry"
     inkscape:groupmode="layer"
     id="g15510"><g
       transform="scale(0.1,0.1)"
       id="g15512"><path
         inkscape:connector-curvature="0"
         id="path15514"
         style="fill:#ababff;fill-opacity:1;fill-rule:nonzero;stroke:none"
         d="m 1251.68,2470 3317.93,0 -1237.73,-1401.33 -3317.9308,0 L 1251.68,2470 Z" /><g
         transform="matrix(0.829358,0,-0.549039,-0.621603,0,0)"
         id="g15516"><path
           inkscape:connector-curvature="0"
           id="path15518"
           style="fill:none;stroke:#000000;stroke-width:20.26129913;stroke-linecap:butt;stroke-linejoin:miter;stroke-miterlimit:4;stroke-dasharray:none;stroke-opacity:1"
           d="m -1121.33,-3973.6 4000.6,0 0.02,2254.38 -4000.6,0 -0.02,-2254.38 z" /></g><path
         inkscape:connector-curvature="0"
         id="path15520"
         style="fill:none;stroke:#000000;stroke-width:5.8190999;stroke-linecap:butt;stroke-linejoin:miter;stroke-miterlimit:4;stroke-dasharray:none;stroke-opacity:1"
         d="M 3007.5,2476.01 1775.12,1080.74" /><path
         inkscape:connector-curvature="0"
         id="path15522"
         style="fill:none;stroke:#000000;stroke-width:5.8190999;stroke-linecap:butt;stroke-linejoin:miter;stroke-miterlimit:4;stroke-dasharray:none;stroke-opacity:1"
         d="m 616.051,1763.28 3317.929,0" /><path
         inkscape:connector-curvature="0"
         id="path15524"
         style="fill:none;stroke:#000000;stroke-width:8;stroke-linecap:butt;stroke-linejoin:miter;stroke-miterlimit:4;stroke-dasharray:none;stroke-opacity:1"
         d="m 2372.11,179.922 0,3622.848" /><path
         inkscape:connector-curvature="0"
         id="path15526"
         style="fill:#000000;fill-opacity:1;fill-rule:evenodd;stroke:none"
         d="m 2372.11,3722.77 31.99,-31.99 -31.99,111.99 -31.99,-111.99 31.99,31.99 z" /><path
         inkscape:connector-curvature="0"
         id="path15528"
         style="fill:none;stroke:#000000;stroke-width:8;stroke-linecap:butt;stroke-linejoin:miter;stroke-miterlimit:4;stroke-dasharray:none;stroke-opacity:1"
         d="m 2372.11,3722.77 31.99,-31.99 -31.99,111.99 -31.99,-111.99 31.99,31.99 z" /><path
         inkscape:connector-curvature="0"
         id="path15530"
         style="fill:none;stroke:#000000;stroke-width:8;stroke-linecap:butt;stroke-linejoin:miter;stroke-miterlimit:4;stroke-dasharray:none;stroke-opacity:1"
         d="M 2372.11,191.332 3663.55,3357.03" /><path
         inkscape:connector-curvature="0"
         id="path15532"
         style="fill:#000000;fill-opacity:1;fill-rule:evenodd;stroke:none"
         d="m 3633.32,3282.97 17.54,-41.72 12.69,115.78 -71.95,-91.6 41.72,17.54 z" /><path
         inkscape:connector-curvature="0"
         id="path15534"
         style="fill:none;stroke:#000000;stroke-width:8;stroke-linecap:butt;stroke-linejoin:miter;stroke-miterlimit:4;stroke-dasharray:none;stroke-opacity:1"
         d="m 3633.32,3282.96 17.54,-41.71 12.69,115.78 -71.94,-91.6 41.71,17.53 z" /><path
         inkscape:connector-curvature="0"
         id="path15536"
         style="fill:none;stroke:#000000;stroke-width:12;stroke-linecap:butt;stroke-linejoin:miter;stroke-miterlimit:4;stroke-dasharray:24, 24;stroke-dashoffset:0;stroke-opacity:1"
         d="m 2379.26,1764.18 498.59,0 280,350" /><path
         inkscape:connector-curvature="0"
         id="path15542"
         style="fill:#000000;fill-opacity:1;fill-rule:evenodd;stroke:none"
         d="m 3723.91,3668.52 0.43,-0.43 0.43,-0.39 0.43,-0.36 0.46,-0.35 0.43,-0.31 0.47,-0.23 0.43,-0.32 0.47,-0.23 0.51,-0.2 0.43,-0.19 0.51,-0.2 0.43,-0.23 0.5,-0.12 0.51,-0.15 0.47,-0.12 0.47,-0.08 0.51,-0.12 1.52,-0.23 0.94,-0.12 0.97,-0.04 1.02,-0.04 2.85,0 0.24,5.43 c -5.24,0 -7,0 -9.69,1.76 3.71,1.76 8.2,1.76 11.44,1.76 8.21,0 9.22,-0.27 13.71,-1.52 -1.99,-0.75 -4.49,-2 -15.46,-2 l -0.24,-5.43 c 6.21,0 22.15,0 22.15,7.7 0,6.17 -9.96,6.76 -19.96,6.76 -2.7,0 -9.45,0 -15.9,-2.5 -1.25,2.93 -1.76,4.18 -1.76,9.45 0,3.48 1.25,8.67 1.25,9.18 0,1.99 -1.25,3.24 -2.97,3.24 -4.53,0 -4.53,-11.44 -4.53,-12.19 0,-4.25 0.78,-8.71 2.78,-12.46 -26.18,-13.2 -65.55,-59.06 -65.55,-107.38 0,-35.12 22.66,-42.62 40.62,-48.55 7.5,-2.78 7.97,-2.78 15.2,-5.28 5.27,-1.72 15.47,-5.23 15.47,-16.95 0,-6.68 -4.77,-16.45 -13.95,-16.45 -6.52,0 -13.2,3.01 -18.47,7.5 -1.72,1.53 -2,1.76 -2.97,1.76 -1.29,0 -2.54,-1.01 -2.54,-2.73 0,-2.5 10.78,-11.96 23.98,-11.96 15.43,0 27.15,15.94 27.15,30.16 0,9.45 -4.76,14.65 -6.76,16.64 -4.25,4.77 -8.94,6.25 -23.63,11.21 -19.92,6.76 -23.91,8.01 -29.92,13.24 -10.47,9.46 -10.47,23.68 -10.47,28.36 0,38.64 30.43,82.23 55.59,95.71 z" /><path
         inkscape:connector-curvature="0"
         id="path15544"
         style="fill:none;stroke:#000000;stroke-width:8;stroke-linecap:butt;stroke-linejoin:miter;stroke-miterlimit:4;stroke-dasharray:none;stroke-opacity:1"
         d="m 2344.73,183.902 -340.98,0" /><path
         inkscape:connector-curvature="0"
         id="path15546"
         style="fill:none;stroke:#000000;stroke-width:8;stroke-linecap:butt;stroke-linejoin:miter;stroke-miterlimit:4;stroke-dasharray:none;stroke-opacity:1"
         d="m 2165.51,769.652 0,-563.871" /><path
         inkscape:connector-curvature="0"
         id="path15548"
         style="fill:#000000;fill-opacity:1;fill-rule:evenodd;stroke:none"
         d="m 2165.51,285.781 -31.99,31.989 31.99,-111.989 31.99,111.989 -31.99,-31.989 z" /><path
         inkscape:connector-curvature="0"
         id="path15550"
         style="fill:none;stroke:#000000;stroke-width:8;stroke-linecap:butt;stroke-linejoin:miter;stroke-miterlimit:4;stroke-dasharray:none;stroke-opacity:1"
         d="m 2165.51,285.781 -31.99,31.992 31.99,-111.992 31.99,111.992 -31.99,-31.992 z" /><path
         inkscape:connector-curvature="0"
         id="path15552"
         style="fill:none;stroke:#000000;stroke-width:8;stroke-linecap:butt;stroke-linejoin:miter;stroke-miterlimit:4;stroke-dasharray:none;stroke-opacity:1"
         d="m 2152.38,1088.75 0,660.04" /><path
         inkscape:connector-curvature="0"
         id="path15554"
         style="fill:#000000;fill-opacity:1;fill-rule:evenodd;stroke:none"
         d="m 2152.38,1668.79 32,-31.99 -32,111.99 -31.99,-111.99 31.99,31.99 z" /><path
         inkscape:connector-curvature="0"
         id="path15556"
         style="fill:none;stroke:#000000;stroke-width:8;stroke-linecap:butt;stroke-linejoin:miter;stroke-miterlimit:4;stroke-dasharray:none;stroke-opacity:1"
         d="m 2152.38,1668.79 32,-31.99 -32,111.99 -31.99,-111.99 31.99,31.99 z" /><path
         inkscape:connector-curvature="0"
         id="path15558"
         style="fill:#000000;fill-opacity:1;fill-rule:evenodd;stroke:none"
         d="m 2178.28,959.379 17.11,0 c 3.95,0 5.94,0 5.94,3.941 0,2.231 -1.99,2.231 -5.39,2.231 l -16.49,0 4.14,22.648 c 0.82,4.18 3.6,18.251 4.81,20.631 1.8,3.75 5.19,6.76 9.33,6.76 0.79,0 5.98,0 9.77,-3.6 -8.79,-0.74 -10.78,-7.73 -10.78,-10.7 0,-4.571 3.59,-6.95 7.38,-6.95 5.16,0 10.94,4.371 10.94,11.91 0,9.14 -9.14,13.71 -17.31,13.71 -6.75,0 -19.25,-3.59 -25.19,-23.241 -1.21,-4.18 -1.8,-6.129 -6.6,-31.168 l -13.67,0 c -3.79,0 -5.98,0 -5.98,-3.832 0,-2.34 1.8,-2.34 5.59,-2.34 l 13.12,0 -14.92,-78.481 c -3.6,-19.296 -6.99,-37.378 -17.31,-37.378 -0.78,0 -5.78,0 -9.57,3.589 9.14,0.59 10.94,7.731 10.94,10.7 0,4.613 -3.55,6.961 -7.34,6.961 -5.12,0 -10.94,-4.34 -10.94,-11.879 0,-8.981 8.75,-13.75 16.91,-13.75 10.9,0 18.87,11.757 22.43,19.3 6.4,12.5 10.93,36.559 11.13,37.93 l 11.95,63.008 z" /><path
         inkscape:connector-curvature="0"
         id="path15562"
         style="fill:none;stroke:#000000;stroke-width:8;stroke-linecap:butt;stroke-linejoin:miter;stroke-miterlimit:4;stroke-dasharray:none;stroke-opacity:1"
         d="M 2694.41,44.0234 2405.9,170.781" /><path
         inkscape:connector-curvature="0"
         id="path15564"
         style="fill:none;stroke:#000000;stroke-width:8;stroke-linecap:butt;stroke-linejoin:miter;stroke-miterlimit:4;stroke-dasharray:none;stroke-opacity:1"
         d="m 3461.56,1982.66 -292.89,104.88" /><path
         inkscape:connector-curvature="0"
         id="path15566"
         style="fill:none;stroke:#000000;stroke-width:8;stroke-linecap:butt;stroke-linejoin:miter;stroke-miterlimit:4;stroke-dasharray:none;stroke-opacity:1"
         d="M 2895.47,993.281 2550.16,140.941" /><path
         inkscape:connector-curvature="0"
         id="path15568"
         style="fill:#000000;fill-opacity:1;fill-rule:evenodd;stroke:none"
         d="m 2580.2,215.078 -17.62,41.684 -12.42,-115.821 71.72,91.758 -41.68,-17.621 z" /><path
         inkscape:connector-curvature="0"
         id="path15570"
         style="fill:none;stroke:#000000;stroke-width:8;stroke-linecap:butt;stroke-linejoin:miter;stroke-miterlimit:4;stroke-dasharray:none;stroke-opacity:1"
         d="m 2580.2,215.082 -17.62,41.676 -12.42,-115.817 71.72,91.762 -41.68,-17.621 z" /><path
         inkscape:connector-curvature="0"
         id="path15572"
         style="fill:none;stroke:#000000;stroke-width:8;stroke-linecap:butt;stroke-linejoin:miter;stroke-miterlimit:4;stroke-dasharray:none;stroke-opacity:1"
         d="m 3030.98,1317.5 275.39,681.91" /><path
         inkscape:connector-curvature="0"
         id="path15574"
         style="fill:#000000;fill-opacity:1;fill-rule:evenodd;stroke:none"
         d="m 3276.41,1925.24 17.69,-41.65 12.27,115.82 -71.6,-91.87 41.64,17.7 z" /><path
         inkscape:connector-curvature="0"
         id="path15576"
         style="fill:none;stroke:#000000;stroke-width:7.99998999;stroke-linecap:butt;stroke-linejoin:miter;stroke-miterlimit:4;stroke-dasharray:none;stroke-opacity:1"
         d="m 3276.4,1925.23 17.71,-41.64 12.26,115.82 -71.6,-91.87 41.63,17.69 z" /><path
         inkscape:connector-curvature="0"
         id="path15578"
         style="fill:#000000;fill-opacity:1;fill-rule:evenodd;stroke:none"
         d="m 2998.63,1198.05 -0.7,-0.08 -0.7,-0.04 -0.67,-0.12 -0.7,-0.15 -0.63,-0.16 -0.58,-0.16 -0.63,-0.23 -0.62,-0.27 -0.55,-0.28 -0.58,-0.27 -0.55,-0.31 -0.51,-0.32 -0.51,-0.39 -0.43,-0.39 -0.5,-0.35 -0.43,-0.43 -0.43,-0.47 -0.39,-0.43 -0.36,-0.46 -0.39,-0.43 -0.31,-0.51 -0.55,-1.02 -0.5,-1.01 -0.47,-1.64 -0.12,-0.59 -0.04,-0.55 -0.08,-0.54 0,-0.51 c 0,-3.79 2.46,-7.81 8.32,-7.81 5.98,0 12.39,4.57 12.39,15.03 0,12.15 -11.57,23.21 -32.03,23.21 -35.51,0 -45.51,-27.46 -45.51,-39.3 0,-21.05 19.92,-25.08 27.77,-26.72 13.98,-2.65 28.01,-5.62 28.01,-20.43 0,-7.03 -6.21,-29.61 -38.56,-29.61 -3.71,0 -24.49,0 -30.66,14.26 10.23,-1.37 16.95,6.72 16.95,14.26 0,6.17 -4.29,9.41 -9.96,9.41 -6.99,0 -15.08,-5.62 -15.08,-17.73 0,-15.35 15.36,-26.13 38.48,-26.13 43.67,0 54.18,32.57 54.18,44.68 0,9.73 -5.16,16.45 -8.4,19.69 -7.22,7.5 -15.08,8.87 -26.91,11.29 -9.69,2.15 -20.47,4.06 -20.47,16.17 0,7.78 6.48,24.18 30.16,24.18 6.75,0 20.19,-1.87 24.25,-12.34 z" /><path
         inkscape:connector-curvature="0"
         id="path15580"
         style="fill:none;stroke:#000000;stroke-width:7.88867998;stroke-linecap:butt;stroke-linejoin:miter;stroke-miterlimit:4;stroke-dasharray:none;stroke-opacity:1"
         d="m 2375.27,1761.87 768.44,339.96" /><path
         inkscape:connector-curvature="0"
         id="path15582"
         style="fill:#000000;fill-opacity:1;fill-rule:evenodd;stroke:none"
         d="m 3071.6,2069.92 -16.09,-41.6 88.2,73.52 -113.75,-15.82 41.64,-16.1 z" /><path
         inkscape:connector-curvature="0"
         id="path15584"
         style="fill:none;stroke:#000000;stroke-width:7.88867998;stroke-linecap:butt;stroke-linejoin:miter;stroke-miterlimit:4;stroke-dasharray:none;stroke-opacity:1"
         d="m 3071.6,2069.92 -16.09,-41.6 88.2,73.52 -113.75,-15.82 41.64,-16.1 z" /><path
         inkscape:connector-curvature="0"
         id="path15586"
         style="fill:#000000;fill-opacity:1;fill-rule:nonzero;stroke:none"
         d="m 3166.41,2100.82 c 0,-10.23 -9.03,-18.55 -20.16,-18.55 -11.17,0 -20.2,8.32 -20.2,18.55 0,10.27 9.03,18.59 20.2,18.59 11.13,0 20.16,-8.32 20.16,-18.59 z" /><path
         inkscape:connector-curvature="0"
         id="path15588"
         style="fill:#000000;fill-opacity:1;fill-rule:nonzero;stroke:none"
         d="m 2390.59,189.102 c 0,-10.274 -9.07,-18.551 -20.2,-18.551 -11.13,0 -20.16,8.277 -20.16,18.551 0,10.238 9.03,18.558 20.16,18.558 11.13,0 20.2,-8.32 20.2,-18.558 z" /><path
         inkscape:connector-curvature="0"
         id="path15590"
         style="fill:#000000;fill-opacity:1;fill-rule:nonzero;stroke:none"
         d="m 2392.93,1763.05 c 0,-10.24 -9.02,-18.56 -20.16,-18.56 -11.13,0 -20.19,8.32 -20.19,18.56 0,10.27 9.06,18.59 20.19,18.59 11.14,0 20.16,-8.32 20.16,-18.59 z" /><g
         id="g16458"
         transform="matrix(7.4284261,0,0,-7.4284261,791.53918,4858.3827)"><g
           word-spacing="normal"
           letter-spacing="normal"
           font-size-adjust="none"
           font-stretch="normal"
           font-weight="normal"
           font-variant="normal"
           font-style="normal"
           stroke-miterlimit="10.433"
           xml:space="preserve"
           transform="matrix(0.71785714,0,0,-0.71785714,-125.625,430.3125)"
           id="g16460"
           style="font-style:normal;font-variant:normal;font-weight:normal;font-stretch:normal;letter-spacing:normal;word-spacing:normal;text-anchor:start;fill:none;fill-opacity:1;fill-rule:evenodd;stroke:#000000;stroke-linecap:butt;stroke-linejoin:miter;stroke-miterlimit:10.43299961;stroke-dasharray:none;stroke-dashoffset:0;stroke-opacity:1"><path
             id="path16462"
             d="m 466.66,417.8 0,22.77 -8.82,-0.4 0,-2.34 c 3.09,0 3.44,0 3.44,-1.94 l 0,-27.55 -3.44,0 0,-2.34 12.01,0 0,2.34 -3.44,0 0,6.33 c 1.45,1.14 1.84,1.44 2.84,2.14 l 5.03,-6.28 c 0.45,-0.6 1.25,-1.59 1.25,-1.74 0,-0.45 -0.9,-0.45 -1.55,-0.45 l 0,-2.34 11.26,0 0,2.34 -0.85,0 c -2.14,0 -2.29,0.2 -2.94,1 l -8.41,10.51 6.47,5.03 c 0.7,0.55 1.15,0.9 4.49,0.9 l 0,2.34 -9.62,0 0,-2.34 c 1.15,0 1.3,-0.16 1.69,-0.55 z"
             inkscape:connector-curvature="0"
             style="fill:#000000;stroke-width:0" /></g></g><g
         transform="matrix(7.2887919,0,0,-7.2887919,1731.5196,3098.8332)"
         id="g16562"><g
           style="font-style:normal;font-variant:normal;font-weight:normal;font-stretch:normal;letter-spacing:normal;word-spacing:normal;text-anchor:start;fill:none;fill-opacity:1;fill-rule:evenodd;stroke:#000000;stroke-linecap:butt;stroke-linejoin:miter;stroke-miterlimit:10.43299961;stroke-dasharray:none;stroke-dashoffset:0;stroke-opacity:1"
           id="content"
           transform="matrix(0.71785714,0,0,-0.71785714,-125.625,430.3125)"
           xml:space="preserve"
           stroke-miterlimit="10.433"
           font-style="normal"
           font-variant="normal"
           font-weight="normal"
           font-stretch="normal"
           font-size-adjust="none"
           letter-spacing="normal"
           word-spacing="normal"><path
             style="fill:#000000;stroke-width:0"
             inkscape:connector-curvature="0"
             d="m 473.79,420.55 0.19,-0.5 0.19,-0.51 0.39,-1.05 0.4,-1.08 0.39,-1.1 0.39,-1.1 0.38,-1.09 0.38,-1.07 0.18,-0.52 0.18,-0.51 0.18,-0.5 0.17,-0.49 0.17,-0.47 0.17,-0.46 0.16,-0.43 0.15,-0.42 0.15,-0.4 0.14,-0.37 0.13,-0.34 0.13,-0.32 0.12,-0.29 0.11,-0.27 0.11,-0.23 0.1,-0.19 0.09,-0.17 0.08,-0.12 c 0.79,-1.1 1.29,-1.1 2.63,-1.1 l 1.1,0 c 0.5,0.05 0.55,0.35 0.55,0.5 0,0.15 -0.1,0.25 -0.25,0.45 -0.5,0.55 -0.8,1.3 -1.15,2.29 l -10.16,28.35 c -1.04,2.88 -3.74,3.53 -6.08,3.53 -0.25,0 -0.89,0 -0.89,-0.55 0,-0.4 0.39,-0.5 0.44,-0.5 1.65,-0.29 2,-0.59 3.24,-3.98 l 4.84,-13.55 -13.75,-13.65 c -0.6,-0.6 -0.9,-0.89 -0.9,-1.54 0,-0.85 0.7,-1.45 1.49,-1.45 0.8,0 1.25,0.55 1.65,1.05 z"
             id="path16565" /></g></g><g
         id="g16662"
         transform="matrix(6.5739583,0,0,-6.5739583,851.59816,873.09192)"><g
           word-spacing="normal"
           letter-spacing="normal"
           font-size-adjust="none"
           font-stretch="normal"
           font-weight="normal"
           font-variant="normal"
           font-style="normal"
           stroke-miterlimit="10.433"
           xml:space="preserve"
           transform="matrix(0.71785714,0,0,-0.71785714,-125.625,430.3125)"
           id="g16664"
           style="font-style:normal;font-variant:normal;font-weight:normal;font-stretch:normal;letter-spacing:normal;word-spacing:normal;text-anchor:start;fill:none;fill-opacity:1;fill-rule:evenodd;stroke:#000000;stroke-linecap:butt;stroke-linejoin:miter;stroke-miterlimit:10.43299961;stroke-dasharray:none;stroke-dashoffset:0;stroke-opacity:1"><path
             id="path16666"
             d="m 493.86,440.62 0,0.02 0,0.01 0,0.02 -0.01,0.02 0,0.01 0,0.02 -0.01,0.02 0,0.02 -0.01,0.02 -0.01,0.02 -0.01,0.02 -0.01,0.02 -0.01,0.02 -0.01,0.02 -0.01,0.02 -0.02,0.02 -0.01,0.02 -0.02,0.02 -0.02,0.02 -0.02,0.02 -0.02,0.02 -0.02,0.01 -0.03,0.02 -0.03,0.01 -0.02,0.01 -0.02,0.01 -0.01,0 -0.02,0.01 -0.02,0 -0.01,0.01 -0.02,0 -0.02,0.01 -0.01,0 -0.02,0 -0.02,0 -0.02,0 -0.02,0.01 -0.02,0 -0.02,0 c -0.15,0 -0.2,-0.05 -0.75,-0.6 l -3.49,-3.84 c -0.44,0.7 -2.73,4.44 -8.26,4.44 -11.11,0 -22.32,-11.01 -22.32,-22.57 0,-8.22 5.88,-13.65 13.5,-13.65 4.33,0 8.12,2 10.76,4.29 4.63,4.08 5.48,8.61 5.48,8.77 0,0.49 -0.5,0.49 -0.6,0.49 -0.3,0 -0.55,-0.09 -0.65,-0.49 -0.44,-1.45 -1.59,-4.99 -5.03,-7.87 -3.43,-2.79 -6.57,-3.64 -9.16,-3.64 -4.49,0 -9.77,2.59 -9.77,10.36 0,2.84 1.05,10.91 6.03,16.74 3.04,3.53 7.72,6.02 12.16,6.02 5.08,0 8.02,-3.83 8.02,-9.61 0,-1.99 -0.16,-2.04 -0.16,-2.54 0,-0.5 0.55,-0.5 0.75,-0.5 0.65,0 0.65,0.1 0.9,1 z"
             inkscape:connector-curvature="0"
             style="fill:#000000;stroke-width:0" /></g></g></g></g></svg>